<svg width="169" height="136" viewBox="0 0 169 136" fill="none" xmlns="http://www.w3.org/2000/svg">
<mask id="path-1-outside-1_230_14" maskUnits="userSpaceOnUse" x="-0.726562" y="0.599609" width="170" height="135" fill="black">
<rect fill="white" x="-0.726562" y="0.599609" width="170" height="135"/>
<path fill-rule="evenodd" clip-rule="evenodd" d="M57.0973 3.77976C54.9083 6.42673 52.8353 13.6169 49.8193 29.0198C45.3903 51.6326 40.9953 60.4511 31.3273 66.117C28.7663 67.618 24.6953 68.901 21.4193 69.239C16.0273 69.795 15.8673 69.741 16.1223 67.449C16.3203 65.6731 15.8893 65.079 14.3883 65.058C13.2893 65.043 12.3333 64.468 12.2633 63.78C12.1923 63.093 12.0793 62.08 12.0103 61.53C11.8543 60.282 8.20328 60.207 7.44328 61.436C7.13528 61.934 6.02728 62.118 4.98028 61.845C2.08028 61.086 1.33128 64.8971 3.61328 68.804C6.48728 73.724 10.9463 76.1961 18.3853 76.993C30.4993 78.29 36.8703 76.136 38.8733 70.065C40.0593 66.4741 41.8853 65.2641 41.8853 68.07C41.8853 70.283 38.4433 76.2471 33.8293 82.0301C28.5383 88.662 25.4323 98.5921 26.1543 106.564C27.4123 120.431 38.3153 131.19 52.9653 133.021C57.5143 133.589 59.8983 133.241 66.4393 131.054C78.1463 127.14 85.7984 122.447 95.9924 112.93C101.028 108.229 106.951 103.682 109.242 102.758L113.385 101.087L109.385 100.227C99.5564 98.1131 96.1963 98.2381 91.1913 100.906C88.5483 102.314 83.8063 104.41 80.6533 105.563C76.6653 107.022 74.4013 108.54 73.2133 110.553C71.0313 114.245 66.8333 116.108 64.0483 114.617C62.9383 114.023 61.3213 113.809 60.4553 114.141C57.7453 115.182 54.4363 113.698 53.1353 110.859C51.2983 106.85 51.5273 105.932 55.4493 101.59L59.0143 97.6451L55.4493 96.976C53.4893 96.608 51.8853 95.907 51.8853 95.4191C51.8853 94.1781 56.2013 94.3091 59.5703 95.6521C61.1183 96.269 64.4943 96.698 67.0713 96.606C71.5823 96.443 80.8353 98.5791 83.8293 100.474C84.8213 101.102 86.6623 100.573 89.7153 98.784C92.9553 96.8851 95.5424 96.186 99.2714 96.2C105.095 96.221 113.538 97.9971 115.48 99.6091C116.2 100.207 117.647 100.423 118.696 100.09C121.003 99.358 124.09 100.389 123.32 101.635C123.016 102.127 121.602 102.53 120.179 102.53C113.575 102.53 106.041 106.652 97.3894 114.998C92.7124 119.51 88.8853 123.451 88.8853 123.757C88.8853 124.062 93.1014 126.161 98.2544 128.421C106.057 131.843 108.689 132.526 114.004 132.508C121.92 132.481 127.122 130.243 132.095 124.728C141.448 114.354 140.62 96.9159 129.968 79.926C125.556 72.8901 124.446 70.049 125.465 68.401C125.891 67.71 127.01 68.9991 128.279 71.642C131.274 77.881 134.179 79.0301 146.964 79.0301C156.955 79.0301 157.743 78.878 161.133 76.291C166.998 71.8161 169.062 61.735 164 62.291C162.678 62.437 161.079 61.81 160.398 60.879C158.83 58.7341 155.885 59.7901 155.885 62.499C155.885 63.638 155.226 64.53 154.385 64.53C152.6 64.53 152.412 66.657 154.052 68.297C155.767 70.012 152.769 70.89 147.301 70.273C139.926 69.442 130.399 64.117 125.693 58.196C119.741 50.7081 117.055 43.8476 113.754 27.7048C110.872 13.6109 108.141 5.81674 105.242 3.41076C104.043 2.41676 103.282 2.67777 101.138 4.82176C98.6484 7.31273 98.5974 7.55477 100.198 9.32276C102.45 11.8117 101.27 12.7757 98.0084 11.1118C89.8254 6.9358 75.7603 6.44379 67.9903 10.0608C62.3273 12.6967 60.3783 12.6077 63.1453 9.84076C64.6673 8.31977 64.6393 7.99273 62.7683 5.36475C60.5933 2.31078 58.7393 1.79277 57.0973 3.77976ZM68.7253 23.2228C66.9883 25.3148 62.9963 26.6998 60.7533 25.9878C57.9223 25.0898 58.5193 23.5298 61.6943 23.5298C63.2393 23.5298 65.3713 22.8948 66.4333 22.1188C68.8163 20.3758 70.4383 21.1578 68.7253 23.2228ZM99.6964 22.7598C104.503 22.6198 103.167 24.9598 98.2294 25.3288C95.2814 25.5498 93.5913 25.0698 91.8063 23.5058L89.3853 21.3828L92.8853 22.1198C94.8103 22.5258 97.8754 22.8138 99.6964 22.7598ZM82.1783 27.9768C81.8583 31.0788 82.1103 34.0808 82.7973 35.3658C84.0423 37.6908 86.8083 38.2068 88.5723 36.4428C89.2393 35.7758 89.8873 35.7238 90.2493 36.3088C90.5733 36.8338 89.9263 38.0878 88.8113 39.0968C87.0843 40.6598 86.3303 40.7588 83.7013 39.7668C81.5593 38.9578 80.0363 38.9138 78.7133 39.6218C76.4153 40.8518 72.8853 39.9088 72.8853 38.0648C72.8853 37.2008 74.0233 36.7868 76.1353 36.8828C79.2803 37.0248 79.3953 36.8897 79.6963 32.6978C79.8883 30.0398 79.4253 27.4768 78.4993 26.0628C76.7323 23.3668 76.8903 23.0758 80.2203 22.8908C82.6463 22.7558 82.7023 22.9008 82.1783 27.9768ZM61.3853 100.393C56.2093 102.748 54.2353 105.041 55.7803 106.903C56.4073 107.659 56.6403 109.005 56.2983 109.895C55.4883 112.006 58.1123 113.014 60.7463 111.604C62.0803 110.89 62.9743 110.864 63.3833 111.527C64.7673 113.767 68.8123 112.492 71.4993 108.969C72.9933 107.011 75.8213 104.584 77.7843 103.577L81.3533 101.746L75.9383 100.138C69.0443 98.0911 66.3423 98.1391 61.3853 100.393ZM81.1353 127.519C79.3483 128.609 77.8853 129.732 77.8853 130.015C77.8853 130.298 81.2603 130.53 85.3853 130.53C89.5103 130.53 92.8853 130.163 92.8853 129.715C92.8853 128.927 86.5543 125.526 85.1013 125.534C84.7073 125.536 82.9223 126.429 81.1353 127.519Z"/>
</mask>
<path fill-rule="evenodd" clip-rule="evenodd" d="M57.0973 3.77976C54.9083 6.42673 52.8353 13.6169 49.8193 29.0198C45.3903 51.6326 40.9953 60.4511 31.3273 66.117C28.7663 67.618 24.6953 68.901 21.4193 69.239C16.0273 69.795 15.8673 69.741 16.1223 67.449C16.3203 65.6731 15.8893 65.079 14.3883 65.058C13.2893 65.043 12.3333 64.468 12.2633 63.78C12.1923 63.093 12.0793 62.08 12.0103 61.53C11.8543 60.282 8.20328 60.207 7.44328 61.436C7.13528 61.934 6.02728 62.118 4.98028 61.845C2.08028 61.086 1.33128 64.8971 3.61328 68.804C6.48728 73.724 10.9463 76.1961 18.3853 76.993C30.4993 78.29 36.8703 76.136 38.8733 70.065C40.0593 66.4741 41.8853 65.2641 41.8853 68.07C41.8853 70.283 38.4433 76.2471 33.8293 82.0301C28.5383 88.662 25.4323 98.5921 26.1543 106.564C27.4123 120.431 38.3153 131.19 52.9653 133.021C57.5143 133.589 59.8983 133.241 66.4393 131.054C78.1463 127.14 85.7984 122.447 95.9924 112.93C101.028 108.229 106.951 103.682 109.242 102.758L113.385 101.087L109.385 100.227C99.5564 98.1131 96.1963 98.2381 91.1913 100.906C88.5483 102.314 83.8063 104.41 80.6533 105.563C76.6653 107.022 74.4013 108.54 73.2133 110.553C71.0313 114.245 66.8333 116.108 64.0483 114.617C62.9383 114.023 61.3213 113.809 60.4553 114.141C57.7453 115.182 54.4363 113.698 53.1353 110.859C51.2983 106.85 51.5273 105.932 55.4493 101.59L59.0143 97.6451L55.4493 96.976C53.4893 96.608 51.8853 95.907 51.8853 95.4191C51.8853 94.1781 56.2013 94.3091 59.5703 95.6521C61.1183 96.269 64.4943 96.698 67.0713 96.606C71.5823 96.443 80.8353 98.5791 83.8293 100.474C84.8213 101.102 86.6623 100.573 89.7153 98.784C92.9553 96.8851 95.5424 96.186 99.2714 96.2C105.095 96.221 113.538 97.9971 115.48 99.6091C116.2 100.207 117.647 100.423 118.696 100.09C121.003 99.358 124.09 100.389 123.32 101.635C123.016 102.127 121.602 102.53 120.179 102.53C113.575 102.53 106.041 106.652 97.3894 114.998C92.7124 119.51 88.8853 123.451 88.8853 123.757C88.8853 124.062 93.1014 126.161 98.2544 128.421C106.057 131.843 108.689 132.526 114.004 132.508C121.92 132.481 127.122 130.243 132.095 124.728C141.448 114.354 140.62 96.9159 129.968 79.926C125.556 72.8901 124.446 70.049 125.465 68.401C125.891 67.71 127.01 68.9991 128.279 71.642C131.274 77.881 134.179 79.0301 146.964 79.0301C156.955 79.0301 157.743 78.878 161.133 76.291C166.998 71.8161 169.062 61.735 164 62.291C162.678 62.437 161.079 61.81 160.398 60.879C158.83 58.7341 155.885 59.7901 155.885 62.499C155.885 63.638 155.226 64.53 154.385 64.53C152.6 64.53 152.412 66.657 154.052 68.297C155.767 70.012 152.769 70.89 147.301 70.273C139.926 69.442 130.399 64.117 125.693 58.196C119.741 50.7081 117.055 43.8476 113.754 27.7048C110.872 13.6109 108.141 5.81674 105.242 3.41076C104.043 2.41676 103.282 2.67777 101.138 4.82176C98.6484 7.31273 98.5974 7.55477 100.198 9.32276C102.45 11.8117 101.27 12.7757 98.0084 11.1118C89.8254 6.9358 75.7603 6.44379 67.9903 10.0608C62.3273 12.6967 60.3783 12.6077 63.1453 9.84076C64.6673 8.31977 64.6393 7.99273 62.7683 5.36475C60.5933 2.31078 58.7393 1.79277 57.0973 3.77976ZM68.7253 23.2228C66.9883 25.3148 62.9963 26.6998 60.7533 25.9878C57.9223 25.0898 58.5193 23.5298 61.6943 23.5298C63.2393 23.5298 65.3713 22.8948 66.4333 22.1188C68.8163 20.3758 70.4383 21.1578 68.7253 23.2228ZM99.6964 22.7598C104.503 22.6198 103.167 24.9598 98.2294 25.3288C95.2814 25.5498 93.5913 25.0698 91.8063 23.5058L89.3853 21.3828L92.8853 22.1198C94.8103 22.5258 97.8754 22.8138 99.6964 22.7598ZM82.1783 27.9768C81.8583 31.0788 82.1103 34.0808 82.7973 35.3658C84.0423 37.6908 86.8083 38.2068 88.5723 36.4428C89.2393 35.7758 89.8873 35.7238 90.2493 36.3088C90.5733 36.8338 89.9263 38.0878 88.8113 39.0968C87.0843 40.6598 86.3303 40.7588 83.7013 39.7668C81.5593 38.9578 80.0363 38.9138 78.7133 39.6218C76.4153 40.8518 72.8853 39.9088 72.8853 38.0648C72.8853 37.2008 74.0233 36.7868 76.1353 36.8828C79.2803 37.0248 79.3953 36.8897 79.6963 32.6978C79.8883 30.0398 79.4253 27.4768 78.4993 26.0628C76.7323 23.3668 76.8903 23.0758 80.2203 22.8908C82.6463 22.7558 82.7023 22.9008 82.1783 27.9768ZM61.3853 100.393C56.2093 102.748 54.2353 105.041 55.7803 106.903C56.4073 107.659 56.6403 109.005 56.2983 109.895C55.4883 112.006 58.1123 113.014 60.7463 111.604C62.0803 110.89 62.9743 110.864 63.3833 111.527C64.7673 113.767 68.8123 112.492 71.4993 108.969C72.9933 107.011 75.8213 104.584 77.7843 103.577L81.3533 101.746L75.9383 100.138C69.0443 98.0911 66.3423 98.1391 61.3853 100.393ZM81.1353 127.519C79.3483 128.609 77.8853 129.732 77.8853 130.015C77.8853 130.298 81.2603 130.53 85.3853 130.53C89.5103 130.53 92.8853 130.163 92.8853 129.715C92.8853 128.927 86.5543 125.526 85.1013 125.534C84.7073 125.536 82.9223 126.429 81.1353 127.519Z" fill="black"/>
<path fill-rule="evenodd" clip-rule="evenodd" d="M57.0973 3.77976C54.9083 6.42673 52.8353 13.6169 49.8193 29.0198C45.3903 51.6326 40.9953 60.4511 31.3273 66.117C28.7663 67.618 24.6953 68.901 21.4193 69.239C16.0273 69.795 15.8673 69.741 16.1223 67.449C16.3203 65.6731 15.8893 65.079 14.3883 65.058C13.2893 65.043 12.3333 64.468 12.2633 63.78C12.1923 63.093 12.0793 62.08 12.0103 61.53C11.8543 60.282 8.20328 60.207 7.44328 61.436C7.13528 61.934 6.02728 62.118 4.98028 61.845C2.08028 61.086 1.33128 64.8971 3.61328 68.804C6.48728 73.724 10.9463 76.1961 18.3853 76.993C30.4993 78.29 36.8703 76.136 38.8733 70.065C40.0593 66.4741 41.8853 65.2641 41.8853 68.07C41.8853 70.283 38.4433 76.2471 33.8293 82.0301C28.5383 88.662 25.4323 98.5921 26.1543 106.564C27.4123 120.431 38.3153 131.19 52.9653 133.021C57.5143 133.589 59.8983 133.241 66.4393 131.054C78.1463 127.14 85.7984 122.447 95.9924 112.93C101.028 108.229 106.951 103.682 109.242 102.758L113.385 101.087L109.385 100.227C99.5564 98.1131 96.1963 98.2381 91.1913 100.906C88.5483 102.314 83.8063 104.41 80.6533 105.563C76.6653 107.022 74.4013 108.54 73.2133 110.553C71.0313 114.245 66.8333 116.108 64.0483 114.617C62.9383 114.023 61.3213 113.809 60.4553 114.141C57.7453 115.182 54.4363 113.698 53.1353 110.859C51.2983 106.85 51.5273 105.932 55.4493 101.59L59.0143 97.6451L55.4493 96.976C53.4893 96.608 51.8853 95.907 51.8853 95.4191C51.8853 94.1781 56.2013 94.3091 59.5703 95.6521C61.1183 96.269 64.4943 96.698 67.0713 96.606C71.5823 96.443 80.8353 98.5791 83.8293 100.474C84.8213 101.102 86.6623 100.573 89.7153 98.784C92.9553 96.8851 95.5424 96.186 99.2714 96.2C105.095 96.221 113.538 97.9971 115.48 99.6091C116.2 100.207 117.647 100.423 118.696 100.09C121.003 99.358 124.09 100.389 123.32 101.635C123.016 102.127 121.602 102.53 120.179 102.53C113.575 102.53 106.041 106.652 97.3894 114.998C92.7124 119.51 88.8853 123.451 88.8853 123.757C88.8853 124.062 93.1014 126.161 98.2544 128.421C106.057 131.843 108.689 132.526 114.004 132.508C121.92 132.481 127.122 130.243 132.095 124.728C141.448 114.354 140.62 96.9159 129.968 79.926C125.556 72.8901 124.446 70.049 125.465 68.401C125.891 67.71 127.01 68.9991 128.279 71.642C131.274 77.881 134.179 79.0301 146.964 79.0301C156.955 79.0301 157.743 78.878 161.133 76.291C166.998 71.8161 169.062 61.735 164 62.291C162.678 62.437 161.079 61.81 160.398 60.879C158.83 58.7341 155.885 59.7901 155.885 62.499C155.885 63.638 155.226 64.53 154.385 64.53C152.6 64.53 152.412 66.657 154.052 68.297C155.767 70.012 152.769 70.89 147.301 70.273C139.926 69.442 130.399 64.117 125.693 58.196C119.741 50.7081 117.055 43.8476 113.754 27.7048C110.872 13.6109 108.141 5.81674 105.242 3.41076C104.043 2.41676 103.282 2.67777 101.138 4.82176C98.6484 7.31273 98.5974 7.55477 100.198 9.32276C102.45 11.8117 101.27 12.7757 98.0084 11.1118C89.8254 6.9358 75.7603 6.44379 67.9903 10.0608C62.3273 12.6967 60.3783 12.6077 63.1453 9.84076C64.6673 8.31977 64.6393 7.99273 62.7683 5.36475C60.5933 2.31078 58.7393 1.79277 57.0973 3.77976ZM68.7253 23.2228C66.9883 25.3148 62.9963 26.6998 60.7533 25.9878C57.9223 25.0898 58.5193 23.5298 61.6943 23.5298C63.2393 23.5298 65.3713 22.8948 66.4333 22.1188C68.8163 20.3758 70.4383 21.1578 68.7253 23.2228ZM99.6964 22.7598C104.503 22.6198 103.167 24.9598 98.2294 25.3288C95.2814 25.5498 93.5913 25.0698 91.8063 23.5058L89.3853 21.3828L92.8853 22.1198C94.8103 22.5258 97.8754 22.8138 99.6964 22.7598ZM82.1783 27.9768C81.8583 31.0788 82.1103 34.0808 82.7973 35.3658C84.0423 37.6908 86.8083 38.2068 88.5723 36.4428C89.2393 35.7758 89.8873 35.7238 90.2493 36.3088C90.5733 36.8338 89.9263 38.0878 88.8113 39.0968C87.0843 40.6598 86.3303 40.7588 83.7013 39.7668C81.5593 38.9578 80.0363 38.9138 78.7133 39.6218C76.4153 40.8518 72.8853 39.9088 72.8853 38.0648C72.8853 37.2008 74.0233 36.7868 76.1353 36.8828C79.2803 37.0248 79.3953 36.8897 79.6963 32.6978C79.8883 30.0398 79.4253 27.4768 78.4993 26.0628C76.7323 23.3668 76.8903 23.0758 80.2203 22.8908C82.6463 22.7558 82.7023 22.9008 82.1783 27.9768ZM61.3853 100.393C56.2093 102.748 54.2353 105.041 55.7803 106.903C56.4073 107.659 56.6403 109.005 56.2983 109.895C55.4883 112.006 58.1123 113.014 60.7463 111.604C62.0803 110.89 62.9743 110.864 63.3833 111.527C64.7673 113.767 68.8123 112.492 71.4993 108.969C72.9933 107.011 75.8213 104.584 77.7843 103.577L81.3533 101.746L75.9383 100.138C69.0443 98.0911 66.3423 98.1391 61.3853 100.393ZM81.1353 127.519C79.3483 128.609 77.8853 129.732 77.8853 130.015C77.8853 130.298 81.2603 130.53 85.3853 130.53C89.5103 130.53 92.8853 130.163 92.8853 129.715C92.8853 128.927 86.5543 125.526 85.1013 125.534C84.7073 125.536 82.9223 126.429 81.1353 127.519Z" stroke="#FFDD5E" stroke-width="4" mask="url(#path-1-outside-1_230_14)"/>
</svg>
