<svg width="64" height="64" viewBox="0 0 64 64" fill="none" xmlns="http://www.w3.org/2000/svg">
<g id="prime:arrow-left">
<path id="Vector" d="M24.0256 21.668C24.1535 21.5346 24.3067 21.428 24.4762 21.3546C24.6458 21.2812 24.8283 21.2424 25.013 21.2405L40.9208 20.9768C41.2934 20.9708 41.6531 21.113 41.9209 21.3721C42.1888 21.6312 42.3428 21.986 42.3492 22.3587L42.613 38.2664C42.6062 38.6307 42.4582 38.9781 42.2003 39.2355C41.9424 39.4929 41.5946 39.6401 41.2303 39.6461C40.866 39.6522 40.5135 39.5166 40.2472 39.2679C39.9809 39.0192 39.8215 38.6768 39.8026 38.313L39.5622 23.8104L25.0596 24.0509C24.687 24.0568 24.3273 23.9146 24.0595 23.6555C23.7916 23.3964 23.6376 23.0416 23.6312 22.669C23.6269 22.4843 23.6597 22.3006 23.7274 22.1287C23.7951 21.9568 23.8965 21.8001 24.0256 21.668Z" fill="white"/>
<path id="Vector_2" d="M21.6792 40.2716L39.9305 21.4048C40.1898 21.1368 40.545 20.9827 40.9179 20.9765C41.2908 20.9703 41.6509 21.1125 41.919 21.3719C42.187 21.6312 42.3411 21.9864 42.3473 22.3593C42.3535 22.7322 42.2113 23.0923 41.9519 23.3603L23.7007 42.2271C23.4413 42.4951 23.0862 42.6492 22.7132 42.6554C22.3403 42.6615 21.9802 42.5193 21.7122 42.26C21.4441 42.0007 21.2901 41.6455 21.2839 41.2726C21.2777 40.8997 21.4199 40.5396 21.6792 40.2716Z" fill="white"/>
</g>
</svg>
