<svg width="27" height="16" viewBox="0 0 27 16" fill="none" xmlns="http://www.w3.org/2000/svg">
<g id="formkit:arrowright">
<path id="Vector" d="M21.0938 8.4375H5.90625C5.43375 8.4375 5.0625 8.06625 5.0625 7.59375C5.0625 7.12125 5.43375 6.75 5.90625 6.75H21.0938C21.5663 6.75 21.9375 7.12125 21.9375 7.59375C21.9375 8.06625 21.5663 8.4375 21.0938 8.4375Z" fill="black"/>
<path id="Vector_2" d="M16.875 14.3433C16.7643 14.3447 16.6546 14.3228 16.5529 14.2793C16.4512 14.2357 16.3597 14.1713 16.2844 14.0902C15.9469 13.7527 15.9469 13.2296 16.2844 12.8921L21.6 7.57644L16.2844 2.26082C15.9469 1.92332 15.9469 1.4002 16.2844 1.0627C16.6219 0.725195 17.145 0.725195 17.4825 1.0627L23.3888 6.96895C23.7263 7.30645 23.7263 7.82957 23.3888 8.16707L17.4825 14.0733C17.3138 14.2421 17.0944 14.3264 16.8919 14.3264L16.875 14.3433Z" fill="black"/>
</g>
</svg>
