<svg width="26" height="15" viewBox="0 0 26 15" fill="none" xmlns="http://www.w3.org/2000/svg">
<g id="formkit:arrowleft">
<path id="Vector" d="M20.3125 8.125H5.6875C5.2325 8.125 4.875 7.7675 4.875 7.3125C4.875 6.8575 5.2325 6.5 5.6875 6.5H20.3125C20.7675 6.5 21.125 6.8575 21.125 7.3125C21.125 7.7675 20.7675 8.125 20.3125 8.125Z" fill="white"/>
<path id="Vector_2" d="M9.75 13.8125C9.64344 13.8138 9.53779 13.7928 9.43983 13.7508C9.34188 13.7088 9.2538 13.6468 9.18125 13.5688L3.49375 7.88125C3.16875 7.55625 3.16875 7.0525 3.49375 6.7275L9.18125 1.05625C9.50625 0.73125 10.01 0.73125 10.335 1.05625C10.66 1.38125 10.66 1.885 10.335 2.21L5.21625 7.32875L10.335 12.4475C10.66 12.7725 10.66 13.2763 10.335 13.6013C10.1725 13.7638 9.96125 13.845 9.76625 13.845L9.75 13.8125Z" fill="white"/>
</g>
</svg>
