<svg width="27" height="27" viewBox="0 0 27 27" fill="none" xmlns="http://www.w3.org/2000/svg">
<g id="noto:dog-face">
<path id="Vector" d="M13.4484 4.21284C7.3122 4.05464 5.32517 8.80495 5.1733 10.5874C5.05517 11.9732 4.46033 17.0421 7.35017 20.4466C8.8415 22.2037 11.2314 23.0791 13.7648 23.02C16.3192 22.961 18.6269 22.4526 20.1794 20.4065C22.7929 16.9619 22.5145 11.815 22.1601 10.1507C21.8268 8.60245 20.5338 4.39425 13.4484 4.21284Z" fill="#FFEAC8"/>
<path id="Vector_2" d="M20.4221 13.5904C20.6393 15.2379 19.9242 16.8094 18.0406 16.9211C16.3172 17.0245 15.2541 15.9255 15.1697 14.3076C15.0832 12.6497 15.9903 11.1077 17.431 10.9495C18.9518 10.7829 20.2069 11.943 20.4221 13.5904ZM3.9858 5.63599C3.9858 5.63599 1.91228 6.4481 1.41236 7.65466C0.739471 9.27888 1.04955 12.502 1.41236 13.7529C1.76885 14.9805 2.71807 16.2483 4.18408 16.2082C5.6501 16.1681 6.93682 14.6831 7.39033 12.7446C7.84596 10.804 7.9451 7.47959 8.08221 6.88474C8.21932 6.2899 8.45767 5.81529 8.45767 5.81529C8.45767 5.81529 6.63728 4.05185 3.9858 5.63599ZM21.3481 5.37865C21.3481 5.37865 24.1599 5.47779 24.8328 5.77521C25.5056 6.07263 26.1195 7.41841 26.0604 9.21982C26.0013 11.0212 25.8832 13.9343 24.972 14.9404C24.2189 15.7715 22.696 15.8306 21.8438 14.8012C20.9916 13.7719 20.4579 12.0295 20.2596 10.901C20.0613 9.77248 19.726 8.30857 19.5066 7.65466C19.2893 7.00076 18.7535 5.69505 18.4772 5.39763C18.1988 5.10232 18.7535 4.82388 21.3481 5.37865Z" fill="#D27856"/>
<path id="Vector_3" d="M6.32102 4.70646C4.79594 4.60943 2.28157 5.81599 1.76688 7.06263C1.25219 8.30927 1.55384 12.355 1.98626 13.5363C2.44188 14.7829 3.3911 16.3481 5.0343 15.0023C6.67751 13.6565 7.11204 10.271 7.27235 9.18255C7.43055 8.09411 7.64782 6.76732 7.88618 6.49099C8.12454 6.21466 8.45993 5.8181 8.45993 5.8181C8.45993 5.8181 8.20258 4.82458 6.32102 4.70646ZM21.6836 4.44911C23.1159 4.54825 24.6726 5.08193 25.2463 6.33068C25.8201 7.57732 25.6028 10.5283 25.3856 11.9332C25.1683 13.338 24.6536 14.804 23.3669 14.6458C22.0802 14.4876 21.4263 12.7453 21.0318 11.1021C20.6352 9.45888 20.2197 7.81568 19.705 6.6281C19.3949 5.91091 18.3191 5.38146 18.3191 5.38146C18.3191 5.38146 18.7938 4.25083 21.6836 4.44911Z" fill="#865B51"/>
<path id="Vector_4" d="M10.652 14.2779C10.5676 14.9993 10.1964 15.5815 9.3906 15.4971C8.81896 15.4359 8.43505 14.7546 8.51943 14.0311C8.6038 13.3097 8.85482 12.7908 9.52982 12.8034C10.5782 12.8224 10.7364 13.5544 10.652 14.2779ZM18.9292 14.0754C18.9629 14.801 18.6761 15.4212 17.8386 15.4823C17.1109 15.5351 16.7376 14.9044 16.7059 14.1787C16.6722 13.4531 17.0329 12.8709 17.7269 12.7845C18.6276 12.6684 18.8954 13.3498 18.9292 14.0754ZM15.8453 17.733C15.879 18.4587 15.3897 19.1379 13.8646 19.1189C12.3796 19.0999 11.8396 18.4987 11.8058 17.7731C11.7721 17.0475 12.6158 16.3957 13.8245 16.3683C15.4888 16.3261 15.8115 17.0053 15.8453 17.733Z" fill="#2F2F2F"/>
<path id="Vector_5" d="M12.4805 20.6635C12.4805 20.6635 12.6598 22.3868 12.837 22.9015C13.2124 23.99 14.7945 23.8086 15.075 22.7834C15.3134 21.9122 15.1552 20.4082 15.1552 20.4082L13.7503 20.21L12.4805 20.6635Z" fill="#E94B8C"/>
<path id="Vector_6" d="M13.9142 21.2375C13.6674 21.248 13.6758 21.4759 13.6758 21.999C13.6758 22.5242 13.7053 22.8406 13.9437 22.8301C14.1821 22.8195 14.1525 22.4145 14.1525 22.0391C14.1525 21.6636 14.1715 21.2269 13.9142 21.2375Z" fill="#EF87B2"/>
<path id="Vector_7" d="M10.578 19.0291C10.2933 19.4489 10.8459 19.8202 11.3015 20.1281C11.7572 20.434 12.3098 20.9002 12.9637 20.8896C13.6957 20.8791 13.894 20.3855 13.894 20.3855C13.894 20.3855 14.1323 20.9698 15.1701 20.8601C15.7249 20.801 16.4083 20.1787 16.6151 20.0395C17.0116 19.7716 17.4862 19.4362 17.2774 19.1578C17.039 18.8393 16.5349 19.2675 16.0202 19.5333C15.5055 19.8012 15.3283 19.9298 14.9423 19.9298C14.5563 19.9298 14.2884 19.7716 14.2694 19.1283C14.2526 18.603 14.2589 18.5039 14.2589 18.5039H13.3772C13.3772 18.5039 13.4067 19.0587 13.4067 19.2169C13.4067 19.6324 13.1894 19.8117 12.7739 19.8307C12.3583 19.8497 11.9133 19.5037 11.6939 19.3751C11.4787 19.2485 10.8058 18.6937 10.578 19.0291Z" fill="#2F2F30"/>
</g>
</svg>
