<svg width="42" height="42" viewBox="0 0 42 42" fill="none" xmlns="http://www.w3.org/2000/svg">
<g id="prime:arrow-left">
<path id="Vector" d="M15.4809 13.9632C15.5633 13.8772 15.662 13.8085 15.7713 13.7612C15.8806 13.7139 15.9982 13.6889 16.1173 13.6877L26.3689 13.5177C26.609 13.5139 26.8409 13.6055 27.0135 13.7725C27.1861 13.9395 27.2853 14.1682 27.2895 14.4083L27.4595 24.6599C27.4551 24.8947 27.3597 25.1186 27.1935 25.2845C27.0273 25.4503 26.8032 25.5452 26.5684 25.5491C26.3336 25.553 26.1065 25.4656 25.9348 25.3053C25.7632 25.1451 25.6605 24.9244 25.6483 24.6899L25.4934 15.3439L16.1473 15.4988C15.9072 15.5027 15.6753 15.411 15.5027 15.2441C15.3301 15.0771 15.2308 14.8484 15.2267 14.6083C15.224 14.4892 15.2451 14.3709 15.2887 14.2601C15.3324 14.1493 15.3977 14.0484 15.4809 13.9632Z" fill="#FDCC17"/>
<path id="Vector_2" d="M13.9732 25.952L25.7352 13.7935C25.9023 13.6207 26.1312 13.5215 26.3715 13.5175C26.6118 13.5135 26.8439 13.6051 27.0166 13.7722C27.1894 13.9394 27.2887 14.1682 27.2926 14.4086C27.2966 14.6489 27.205 14.8809 27.0379 15.0537L15.2759 27.2122C15.1088 27.385 14.8799 27.4843 14.6396 27.4883C14.3993 27.4923 14.1672 27.4006 13.9945 27.2335C13.8217 27.0664 13.7224 26.8375 13.7184 26.5972C13.7145 26.3569 13.8061 26.1248 13.9732 25.952Z" fill="#FDCC17"/>
</g>
</svg>
