<svg width="30" height="30" viewBox="0 0 30 30" fill="none" xmlns="http://www.w3.org/2000/svg">
<g id="prime:arrow-left">
<path id="Vector" d="M13.7492 23.4376C13.626 23.4381 13.5039 23.4141 13.3902 23.3669C13.2764 23.3197 13.1732 23.2502 13.0867 23.1626L5.58667 15.6626C5.41111 15.4868 5.3125 15.2485 5.3125 15.0001C5.3125 14.7516 5.41111 14.5133 5.58667 14.3376L13.0867 6.83755C13.2644 6.67195 13.4995 6.5818 13.7423 6.58608C13.9852 6.59037 14.2169 6.68876 14.3887 6.86052C14.5605 7.03229 14.6589 7.26402 14.6631 7.5069C14.6674 7.74978 14.5773 7.98483 14.4117 8.16255L7.57417 15.0001L14.4117 21.8376C14.5872 22.0133 14.6858 22.2516 14.6858 22.5001C14.6858 22.7485 14.5872 22.9868 14.4117 23.1626C14.3251 23.2502 14.2219 23.3197 14.1082 23.3669C13.9944 23.4141 13.8723 23.4381 13.7492 23.4376Z" fill="#5A5A5A"/>
<path id="Vector_2" d="M23.75 15.9375H6.25C6.00136 15.9375 5.7629 15.8387 5.58709 15.6629C5.41127 15.4871 5.3125 15.2486 5.3125 15C5.3125 14.7514 5.41127 14.5129 5.58709 14.3371C5.7629 14.1613 6.00136 14.0625 6.25 14.0625H23.75C23.9986 14.0625 24.2371 14.1613 24.4129 14.3371C24.5887 14.5129 24.6875 14.7514 24.6875 15C24.6875 15.2486 24.5887 15.4871 24.4129 15.6629C24.2371 15.8387 23.9986 15.9375 23.75 15.9375Z" fill="#5A5A5A"/>
</g>
</svg>
